# MagicaVoxel @ ephtracy

# material
mtllib Floor.mtl
usemtl palette

# normals
vn -1 0 0
vn 1 0 0
vn 0 0 1
vn 0 0 -1
vn 0 -1 0
vn 0 1 0

# texcoords
vt 0.189453 0.5
vt 0.197266 0.5
vt 0.216797 0.5
vt 0.248047 0.5
vt 0.267578 0.5
vt 0.361328 0.5
vt 0.365234 0.5
vt 0.388672 0.5
vt 0.392578 0.5
vt 0.396484 0.5

# verts
v -5 0 5
v -5 0 -5
v -5 1 5
v -5 1 -5
v 5 0 5
v 5 0 -5
v 5 1 5
v 5 1 -5
v -5 0 5
v -5 1 5
v -4 0 5
v -4 1 5
v -3 0 5
v -3 1 5
v -2 0 5
v -2 1 5
v -1 0 5
v -1 1 5
v 0 0 5
v 0 1 5
v 1 0 5
v 1 1 5
v 2 0 5
v 2 1 5
v 3 0 5
v 3 1 5
v 4 0 5
v 4 1 5
v 5 0 5
v 5 1 5
v -5 0 -5
v -5 1 -5
v -4 0 -5
v -4 1 -5
v -3 0 -5
v -3 1 -5
v -2 0 -5
v -2 1 -5
v -1 0 -5
v -1 1 -5
v 0 0 -5
v 0 1 -5
v 1 0 -5
v 1 1 -5
v 2 0 -5
v 2 1 -5
v 3 0 -5
v 3 1 -5
v 4 0 -5
v 4 1 -5
v 5 0 -5
v 5 1 -5
v -5 0 5
v -4 0 5
v -3 0 5
v -2 0 5
v -1 0 5
v 0 0 5
v 1 0 5
v 2 0 5
v 3 0 5
v 4 0 5
v 5 0 5
v -5 0 -5
v -4 0 -5
v -3 0 -5
v -2 0 -5
v -1 0 -5
v 0 0 -5
v 1 0 -5
v 2 0 -5
v 3 0 -5
v 4 0 -5
v 5 0 -5
v -5 1 5
v -4 1 5
v -3 1 5
v -2 1 5
v -1 1 5
v 0 1 5
v 1 1 5
v 2 1 5
v 3 1 5
v 4 1 5
v 5 1 5
v -5 1 -5
v -4 1 -5
v -3 1 -5
v -2 1 -5
v -1 1 -5
v 0 1 -5
v 1 1 -5
v 2 1 -5
v 3 1 -5
v 4 1 -5
v 5 1 -5

# faces
f 3/8/1 2/8/1 1/8/1
f 4/8/1 2/8/1 3/8/1
f 5/9/2 6/9/2 7/9/2
f 7/9/2 6/9/2 8/9/2
f 11/8/3 10/8/3 9/8/3
f 12/8/3 10/8/3 11/8/3
f 13/10/3 12/10/3 11/10/3
f 14/10/3 12/10/3 13/10/3
f 15/7/3 14/7/3 13/7/3
f 16/7/3 14/7/3 15/7/3
f 17/5/3 16/5/3 15/5/3
f 18/5/3 16/5/3 17/5/3
f 19/4/3 18/4/3 17/4/3
f 20/4/3 18/4/3 19/4/3
f 21/2/3 20/2/3 19/2/3
f 22/2/3 20/2/3 21/2/3
f 23/1/3 22/1/3 21/1/3
f 24/1/3 22/1/3 23/1/3
f 25/3/3 24/3/3 23/3/3
f 26/3/3 24/3/3 25/3/3
f 27/6/3 26/6/3 25/6/3
f 28/6/3 26/6/3 27/6/3
f 29/9/3 28/9/3 27/9/3
f 30/9/3 28/9/3 29/9/3
f 31/8/4 32/8/4 33/8/4
f 33/8/4 32/8/4 34/8/4
f 33/10/4 34/10/4 35/10/4
f 35/10/4 34/10/4 36/10/4
f 35/7/4 36/7/4 37/7/4
f 37/7/4 36/7/4 38/7/4
f 37/5/4 38/5/4 39/5/4
f 39/5/4 38/5/4 40/5/4
f 39/4/4 40/4/4 41/4/4
f 41/4/4 40/4/4 42/4/4
f 41/2/4 42/2/4 43/2/4
f 43/2/4 42/2/4 44/2/4
f 43/1/4 44/1/4 45/1/4
f 45/1/4 44/1/4 46/1/4
f 45/3/4 46/3/4 47/3/4
f 47/3/4 46/3/4 48/3/4
f 47/6/4 48/6/4 49/6/4
f 49/6/4 48/6/4 50/6/4
f 49/9/4 50/9/4 51/9/4
f 51/9/4 50/9/4 52/9/4
f 64/8/5 54/8/5 53/8/5
f 65/10/5 55/10/5 54/10/5
f 65/8/5 54/8/5 64/8/5
f 66/7/5 56/7/5 55/7/5
f 66/10/5 55/10/5 65/10/5
f 67/5/5 57/5/5 56/5/5
f 67/7/5 56/7/5 66/7/5
f 68/4/5 58/4/5 57/4/5
f 68/5/5 57/5/5 67/5/5
f 69/2/5 59/2/5 58/2/5
f 69/4/5 58/4/5 68/4/5
f 70/1/5 60/1/5 59/1/5
f 70/2/5 59/2/5 69/2/5
f 71/3/5 61/3/5 60/3/5
f 71/1/5 60/1/5 70/1/5
f 72/6/5 62/6/5 61/6/5
f 72/3/5 61/3/5 71/3/5
f 73/9/5 63/9/5 62/9/5
f 73/6/5 62/6/5 72/6/5
f 74/9/5 63/9/5 73/9/5
f 75/8/6 76/8/6 86/8/6
f 76/10/6 77/10/6 87/10/6
f 86/8/6 76/8/6 87/8/6
f 77/7/6 78/7/6 88/7/6
f 87/10/6 77/10/6 88/10/6
f 78/5/6 79/5/6 89/5/6
f 88/7/6 78/7/6 89/7/6
f 79/4/6 80/4/6 90/4/6
f 89/5/6 79/5/6 90/5/6
f 80/2/6 81/2/6 91/2/6
f 90/4/6 80/4/6 91/4/6
f 81/1/6 82/1/6 92/1/6
f 91/2/6 81/2/6 92/2/6
f 82/3/6 83/3/6 93/3/6
f 92/1/6 82/1/6 93/1/6
f 83/6/6 84/6/6 94/6/6
f 93/3/6 83/3/6 94/3/6
f 84/9/6 85/9/6 95/9/6
f 94/6/6 84/6/6 95/6/6
f 95/9/6 85/9/6 96/9/6
